# xmcd CD database file
#
# Track frame offsets:
#	150
#	2054
#	22693
#	44928
#	61818
#	63215
#	81376
#	98890
#	102223
#	122845
#	147044
#	152543
#	163485
#	180723
#
# Disc length: 2718 seconds
#
# Revision: 4
# Processed by: cddbd v1.5.1PL0 Copyright (c) Steve Scherf et al.
# Submitted via: CDex 1.51
#
DISCID=b50a9c0e
DTITLE=Ja Rule - Blood In My Eye
DYEAR=2003
DGENRE=Hip-Hop
TTITLE0=Murder Intro
TTITLE1=The Life (Featuring Hussein Fatal, Caddillac Tah and James Gotti)
TTITLE2=Clap Back
TTITLE3=The Crown (Featuring Sizzla)
TTITLE4=Kay Slay (Skit)
TTITLE5=Things Gon' Change (Featuring Black Child, Young Merc and D.O. Cannons)
TTITLE6=Race Against Time II
TTITLE7=Bobby Creep (Skit)
TTITLE8=Niggas and Bitches
TTITLE9=The INC Is Back (Featuring Shadow, Sekou 720 and Black Child)
TTITLE10=Remo (Skit)
TTITLE11=Blood In My Eye (Featuring Hussein Fatal)
TTITLE12=It's Murda (Freestyle) (Featuring Hussein Fatal)
TTITLE13=The Wrap (Freestyle) (Featuring Hussein Fatal)
EXTD=YEAR: 2003
EXTT0=
EXTT1=
EXTT2=
EXTT3=
EXTT4=
EXTT5=
EXTT6=
EXTT7=
EXTT8=
EXTT9=
EXTT10=
EXTT11=
EXTT12=
EXTT13=
PLAYORDER=
